<svg width="202" height="203" viewBox="0 0 202 203" fill="none" xmlns="http://www.w3.org/2000/svg">
<path d="M64 63.0662L103.913 62.2217C103.913 62.2217 131.409 66.4443 135.844 69.4001C140.279 72.3559 138.062 82.0678 127.418 79.112C116.774 76.1562 110.566 75.734 110.566 75.734L105.687 75.5017M92.8264 74.8894L105.687 75.5017M105.687 75.5017C120.322 78.6898 114.114 88.4017 105.687 87.1349C97.2612 85.8682 87.0611 89.2462 80.4089 87.1349C73.7566 85.0236 66.2174 80.3788 64.887 80.3788" stroke="white" stroke-width="2.17" stroke-linecap="round"/>
<path d="M108.408 61.9829C108.433 61.9829 109.424 61.9884 111.063 62.0157C111.723 62.0267 112.035 62.0756 114.185 62.0917C116.336 62.1078 120.315 62.1008 123.399 62.0792C126.484 62.0575 128.552 62.0214 129.702 62.0215C132.173 62.0219 135.063 63.359 136.106 65.5694C136.451 66.8469 136.481 67.2635 136.476 67.5588C136.471 67.6999 136.298 68.8506 136.288 68.9778" stroke="white" stroke-width="2.17" stroke-linecap="round"/>
<path d="M102.139 62.2217C102.294 62.215 105.372 62.259 107.649 61.7556C109.633 61.317 110.946 60.8121 112.021 60.6423C114.002 60.3293 116.002 59.9985 117.99 59.7277C119.47 59.5261 121.321 59.3858 122.579 59.2692C124.451 59.0957 125.532 58.9734 126.296 59.005C126.746 59.0958 127.528 59.3516 127.861 59.7277C128.093 60.0129 128.748 60.9549 128.305 61.3772" stroke="white" stroke-width="2.17" stroke-linecap="round"/>
<path d="M115.226 145.886L116.372 107.887C116.372 107.887 111.453 87.5572 110.122 87.5572C108.792 87.5572 99.9221 86.7127 96.8177 87.135C93.7133 87.5572 100.801 101.49 100.801 101.49L101.048 106.136M101.7 118.384L101.048 106.136M101.048 106.136C97.4307 92.1865 86.1923 98.0523 87.6186 106.081C89.0449 114.11 85.1015 123.806 87.5103 130.15C89.9192 136.493 95.2491 143.694 95.2434 144.96" stroke="white" stroke-width="2.17" stroke-linecap="round"/>
<path d="M116.667 103.609C116.667 103.585 116.665 102.641 116.64 101.081C116.631 100.452 116.575 100.155 116.566 98.1079C116.557 96.0604 116.582 92.2713 116.62 89.3349C116.658 86.3984 116.709 84.4295 116.713 83.3347C116.724 80.9814 115.192 78.2234 112.645 77.2202C111.172 76.8854 110.691 76.855 110.35 76.8586C110.187 76.8628 108.939 76.1468 108.792 76.1563" stroke="white" stroke-width="2.17" stroke-linecap="round"/>
<path d="M116.364 109.577C116.373 109.429 116.335 106.498 116.926 104.333C117.441 102.446 118.029 101.198 118.23 100.176C118.6 98.291 118.99 96.3882 119.311 94.4965C119.551 93.088 119.72 91.3266 119.86 90.129C120.069 88.3476 120.215 87.3187 120.181 86.5918C120.078 86.1628 119.786 85.4169 119.354 85.0976C119.025 84.876 117.941 84.2473 117.451 84.6676" stroke="white" stroke-width="2.17" stroke-linecap="round"/>
</svg>
