<svg width="202" height="203" viewBox="0 0 202 203" fill="none" xmlns="http://www.w3.org/2000/svg">
<path d="M49.3782 130.381C34.6227 117.467 54.0272 97.877 62.2749 78.7415V74.2386L72.0313 70.2096V67.1287C76.3043 65.6372 78.7032 65.6104 82.9776 67.1287V70.2096H87.0229C86.7613 73.9226 88.1819 75.4489 91.7822 77.7935C95.3825 80.1382 104.823 80.1571 109.153 77.7935C113.483 75.43 114.437 73.6652 115.102 70.2096H119.386L120.814 67.1287C124.716 65.9734 126.906 65.8319 130.808 67.1287L131.76 70.2096L141.04 75.4236V80.1635C148.85 98.615 166.911 117.737 152.724 130.381C145.784 136.566 136.637 139.923 129.38 134.199C124.456 130.314 121.289 125.155 123.431 119.268C125.573 113.381 126.963 110.204 125.573 104.574C124.352 99.6317 121.74 95.4363 118.434 93.6723C114.189 92.4735 111.678 91.6986 108.202 93.6723C104.456 95.7989 103.696 99.171 102.966 103.389H98.2071C97.4384 99.4241 95.9342 95.5226 91.7822 93.6723C88.6407 92.2724 86.4159 92.9602 82.9776 93.6723C78.4025 95.947 76.8883 98.3703 76.3146 104.574C75.866 110.805 76.7906 113.381 78.6943 119.268C80.598 125.155 78.1216 130.151 73.4591 134.199C66.265 140.445 56.4398 136.562 49.3782 130.381Z" stroke="white" stroke-width="2.18" stroke-linecap="round"/>
<path d="M92.972 74.0016C90.8119 72.6159 90.6949 71.7544 90.5924 70.2096H110.819C110.821 71.7941 110.516 72.6334 109.153 74.0016C107.791 75.3697 95.1321 75.3873 92.972 74.0016Z" stroke="white" stroke-width="2.18" stroke-linecap="round"/>
<rect x="124.852" y="75.9662" width="3.82104" height="3.83" stroke="white" stroke-width="2.17"/>
<path d="M122.682 81.9662V85.7963H118.861V81.9662H122.682Z" stroke="white" stroke-width="2.17"/>
<rect x="130.843" y="81.9662" width="3.82104" height="3.83" stroke="white" stroke-width="2.17"/>
<rect x="124.852" y="87.9662" width="3.82104" height="3.83" stroke="white" stroke-width="2.17"/>
<path d="M88.1038 98.085C91.288 98.085 93.7922 100.551 93.7922 103.5C93.7922 106.449 91.288 108.915 88.1038 108.915C84.9195 108.915 82.4153 106.449 82.4153 103.5C82.4153 100.551 84.9195 98.085 88.1038 98.085ZM114.497 98.085C117.681 98.0851 120.186 100.551 120.186 103.5C120.186 106.449 117.681 108.915 114.497 108.915C111.313 108.915 108.809 106.449 108.809 103.5C108.809 100.551 111.313 98.085 114.497 98.085Z" stroke="white" stroke-width="2.17"/>
<path d="M88.1038 98.085C91.288 98.085 93.7922 100.551 93.7922 103.5C93.7922 106.449 91.288 108.915 88.1038 108.915C84.9195 108.915 82.4153 106.449 82.4153 103.5C82.4153 100.551 84.9195 98.085 88.1038 98.085ZM114.497 98.085C117.681 98.0851 120.186 100.551 120.186 103.5C120.186 106.449 117.681 108.915 114.497 108.915C111.313 108.915 108.809 106.449 108.809 103.5C108.809 100.551 111.313 98.085 114.497 98.085Z" stroke="white" stroke-width="2.17"/>
</svg>
