<svg width="202" height="203" viewBox="0 0 202 203" fill="none" xmlns="http://www.w3.org/2000/svg">
<path d="M94.6576 132.032L85.5859 125M85.5859 125C85.2314 131.849 84.5764 134.697 79.5859 140C111.086 159 99.5859 149 112.086 142.5C124.586 136 106.741 130.626 115.086 125C119.102 122.015 120.878 112.192 123.435 107.855C123.435 107.855 125.362 108.078 126.563 107.855C132.336 106.782 135.433 97.3479 130.942 93.5969C129.52 92.4087 128.653 91.2573 126.563 91.7372C127.88 83.9901 129.255 79.1733 126.563 71.8999C123.41 63.3802 118.735 58.0709 110.298 54.5424C101.969 51.0594 96.19 51.0514 87.1504 55.1622C78.5992 60.1637 73.48 65.3643 71.5105 74.9995C70.2941 80.9503 71.1938 84.4312 72.7617 90.4974C70.1632 90.0819 69.2016 91.8174 67.7569 93.5969C64.0277 98.1904 66.9081 106.801 72.7617 107.855C73.9636 108.071 75.8897 107.855 75.8897 107.855C78.3858 112.13 82.0889 121.968 85.5859 125Z" stroke="white" stroke-width="2.17" stroke-linecap="round"/>
<path d="M71.7254 97C71.5347 97.0463 70.9173 97.249 70.4547 97.5696C70.0369 97.8592 70.0655 99.2612 70.1104 100.203C70.1416 100.857 70.5769 101.429 71.0429 101.763C71.2982 101.856 71.5947 101.918 72.0367 101.96C72.3127 101.978 72.6935 101.989 73.0859 102" stroke="white" stroke-width="2.17" stroke-linecap="round"/>
<path d="M127.446 97C127.637 97.0463 128.255 97.249 128.717 97.5696C129.135 97.8592 129.106 99.2612 129.061 100.203C129.03 100.857 128.595 101.429 128.129 101.763C127.874 101.856 127.577 101.918 127.135 101.96C126.859 101.978 126.478 101.989 126.086 102" stroke="white" stroke-width="2.17" stroke-linecap="round"/>
<path d="M90.5665 90.501C90.4404 90.4425 89.9657 90.4006 89.1656 90.5909C86.9306 91.1224 85.697 92.2467 84.451 93.4751C84.2091 93.7092 84.0425 93.8372 83.7456 94.0152C83.4488 94.1931 83.0267 94.4171 82.5836 94.6651" stroke="white" stroke-width="2.17" stroke-linecap="round"/>
<path d="M109.289 90.9938C109.447 90.9826 110.095 90.8385 111.002 90.699C111.737 90.5859 112.672 90.8602 113.767 91.1829C115.582 91.7173 115.922 92.9087 116.641 93.7826C117.094 94.2078 117.64 94.6208 118.228 95.0933C118.504 95.3526 118.734 95.6514 119.073 96.0206" stroke="white" stroke-width="2.17" stroke-linecap="round"/>
<path d="M128.354 60.8533C128.491 61.6101 129.974 66.1417 131.727 70.4665C133.272 74.2796 134.277 76.7129 134.858 81.0269C136.004 89.5184 137.521 93.1364 139.358 96.5289C140.868 99.3178 140.498 103.198 139.57 106.383C138.075 108.641 135.177 110.541 131.529 112.197C130.75 112.535 130.167 112.789 129.05 113.35" stroke="#E6E7EB" stroke-width="2.17" stroke-linecap="round"/>
<path d="M136.096 67.8479C137.079 69.442 140.666 75.8507 142.159 80.7747C143.005 86.9074 143.214 90.2935 144.041 92.8802C144.421 93.5266 145.005 94.1849 145.815 95.2169" stroke="#E6E7EB" stroke-width="2.17" stroke-linecap="round"/>
<path d="M148.211 77.8569V81.3884" stroke="#E6E7EB" stroke-width="2.17" stroke-linecap="round"/>
<path d="M62.9273 89.0269C62.9273 89.9288 62.4363 93.7298 61.5653 98.7643C60.0843 107.324 64.1942 112.968 66.7699 115.645C68.8603 117.817 72.2154 117.223 74.8402 118.258C75.9568 119.036 76.9364 120.213 77.8769 121.938C78.3634 122.91 78.8689 124.081 80.0188 126.663" stroke="#E6E7EB" stroke-width="2.17" stroke-linecap="round"/>
<path d="M57.0225 96.6167C57.0225 100.214 57.6309 111.004 58.6242 115.004C59.2663 116.216 60.7774 117.907 63.1632 119.996C64.4087 120.976 65.7246 121.793 67.8096 123.169" stroke="#E6E7EB" stroke-width="2.17" stroke-linecap="round"/>
<path d="M53 113.872C53 113.849 53 113.827 53.0314 114.216C53.0628 114.604 53.1256 115.405 53.8024 117.32" stroke="#E6E7EB" stroke-width="2.17" stroke-linecap="round"/>
<circle cx="87.5859" cy="96.5" r="1.5" fill="white"/>
<circle cx="112.586" cy="96.5" r="1.5" fill="white"/>
<path d="M95.9238 118.347C96.1299 118.325 97.8034 117.94 100.331 117.406C102.495 116.948 103.733 117.159 104.139 117.248C104.701 117.428 105.415 117.791 106.117 118.288C106.432 118.537 106.663 118.779 106.929 119.157" stroke="#E6E7EB" stroke-width="2.17" stroke-linecap="round"/>
</svg>
