<svg width="202" height="203" viewBox="0 0 202 203" fill="none" xmlns="http://www.w3.org/2000/svg">
<path d="M105.009 135.246L96.7486 128.828M96.7486 128.828C96.4257 135.079 95.8294 137.679 91.2852 142.52C119.968 159.862 109.496 150.735 120.878 144.801C132.26 138.868 116.012 133.963 123.61 128.828C127.267 126.103 128.884 117.137 131.212 113.178C131.212 113.178 132.967 113.382 134.061 113.178C139.317 112.198 142.138 103.587 138.048 100.164C136.753 99.0789 135.964 98.0279 134.061 98.466C135.26 91.3945 136.511 86.9978 134.061 80.3588C131.19 72.5821 126.932 67.7359 119.25 64.5151C111.667 61.3359 106.404 61.3286 98.1731 65.0809C90.3867 69.6461 85.7254 74.3932 83.9321 83.188C82.8245 88.6198 83.6437 91.7971 85.0714 97.3343C82.7053 96.955 81.8297 98.5392 80.5142 100.164C77.1186 104.356 79.7414 112.216 85.0714 113.178C86.1657 113.376 87.9196 113.178 87.9196 113.178C90.1924 117.08 93.5643 126.06 96.7486 128.828Z" stroke="white" stroke-width="2.17" stroke-linecap="round"/>
<path d="M84.1278 103.27C83.9541 103.312 83.392 103.497 82.9708 103.79C82.5903 104.054 82.6163 105.334 82.6573 106.193C82.6857 106.79 83.082 107.313 83.5063 107.617C83.7388 107.702 84.0087 107.759 84.4112 107.797C84.6625 107.814 85.0093 107.824 85.3666 107.834" stroke="white" stroke-width="2.17" stroke-linecap="round"/>
<path d="M134.865 103.27C135.039 103.312 135.601 103.497 136.022 103.79C136.402 104.054 136.376 105.334 136.336 106.193C136.307 106.79 135.911 107.313 135.486 107.617C135.254 107.702 134.984 107.759 134.582 107.797C134.33 107.814 133.983 107.824 133.626 107.834" stroke="white" stroke-width="2.17" stroke-linecap="round"/>
<path d="M103.578 101.208C103.498 101.11 103.126 100.886 102.395 100.723C100.352 100.268 98.8948 100.7 97.3856 101.212C97.0944 101.307 96.907 101.346 96.5931 101.374C96.2791 101.402 95.8443 101.417 95.3828 101.444" stroke="white" stroke-width="2.17" stroke-linecap="round"/>
<path d="M117.236 101.444C117.359 101.368 117.821 100.977 118.493 100.48C119.038 100.076 119.908 99.9019 120.928 99.6983C122.617 99.361 123.395 100.18 124.344 100.581C124.889 100.733 125.505 100.835 126.179 100.968C126.51 101.061 126.822 101.205 127.252 101.359" stroke="white" stroke-width="2.17" stroke-linecap="round"/>
<path d="M112.193 73.7727C111.437 74.3065 110.041 75.5661 108.94 77.4804C108.172 78.8149 107.947 80.2818 107.728 82.3797C107.315 86.3525 107.477 89.6269 107.381 90.8569C107.267 92.3208 105.211 93.1511 103.354 93.7773C102.512 94.0608 100.934 94.0133 100.075 93.9744C99.2166 93.9354 99.0845 93.7263 98.8661 93.2429C98.3146 92.0224 97.9114 90.8129 97.5862 90.2909C97.0009 89.3515 95.7467 92.3353 95.0977 94.152C94.9714 94.5058 94.9673 94.7638 94.8419 94.9641C94.0436 95.5155 91.4684 95.7449 87.9305 95.9369C86.4752 96.0135 85.7102 96.0479 84.2782 95.9407" stroke="white" stroke-width="2.17" stroke-linecap="round"/>
<path d="M111.261 74.8094C111.798 75.3644 112.495 76.6302 112.9 79.4597C113.211 81.6271 113.305 85.3306 113.34 87.888C113.375 90.4455 113.239 91.7577 113.267 92.2172C113.281 92.4441 114.448 88.7557 115.666 83.3344C116.198 80.9691 116.286 79.3304 116.514 78.9052C117.478 77.1087 118.649 84.049 119.217 87.4394C119.735 90.5327 119.047 92.8965 119.805 93.7515C121.654 95.8375 125.408 95.9044 127.87 96.3648C129.002 96.5522 129.894 96.6458 130.814 96.7307C131.735 96.8157 132.657 96.8892 133.607 96.965" stroke="white" stroke-width="2.17" stroke-linecap="round"/>
<path d="M100.81 63.2081C100.823 62.8113 100.913 61.577 101.375 60.8058C101.869 59.9822 104.021 59.5667 108.823 59.2419C112.224 59.012 114.222 59.7106 116.861 60.3007C118.295 60.6215 119.144 61.0977 119.541 61.3436C120.009 62.0212 119.979 62.6829 119.847 63.0842C119.771 63.2949 119.677 63.5199 119.578 63.7609" stroke="white" stroke-width="2.17" stroke-linecap="round"/>
<path d="M119.562 60.4313C121.276 50.274 70.1109 39.1919 64.9988 80.3484C64.3723 85.3918 64.304 91.47 64.838 97.6068C65.3721 103.744 66.5106 109.755 67.128 113.595C67.9803 118.897 67.7524 120.979 67.4753 122.013C66.8326 124.411 64.3277 127.099 63.0875 129.176C62.6713 129.873 63.8433 130.268 64.4155 130.432C65.7903 130.825 67.7453 130.059 69.4049 129.193C69.9686 128.899 70.7146 128.281 71.1232 128.11C71.5318 127.939 71.5447 128.173 71.5127 128.492C71.3141 130.474 69.7016 133.889 67.5511 136.848C66.9691 137.649 66.0385 138.319 66.4931 138.689C68.2338 140.107 71.7472 138.758 73.8766 138.308C76.6477 137.723 79.1284 135.295 80.7874 133.531C81.6119 132.655 80.6697 139.822 81.1224 143.439C81.2198 144.218 81.5902 145.139 81.8193 145.221C83.6127 145.856 82.9534 142.544 85.3229 139.831C87.3358 138.193 88.6951 137.55 92.5485 137.014C93.6416 136.92 94.5876 136.893 95.156 136.759" stroke="white" stroke-width="2.17" stroke-linecap="round"/>
<path d="M105.308 124.223C105.778 124.535 108.403 125.584 110.142 125.773C110.754 125.663 112.008 125.151 113.525 124.431C114.109 124.147 114.315 124.027 114.55 123.884" stroke="white" stroke-width="2.17" stroke-linecap="round"/>
<path d="M101.408 103.043C101.361 103.048 101.314 103.053 101.033 103.073C100.752 103.093 100.239 103.127 99.7096 103.184" stroke="white" stroke-width="2.17" stroke-linecap="round"/>
<path d="M120.403 102.844C120.47 102.844 120.537 102.844 120.793 102.846C121.049 102.848 121.492 102.853 121.966 102.85" stroke="white" stroke-width="2.17" stroke-linecap="round"/>
</svg>
